<svg id="visual" viewBox="0 0 1920 1094" width="1920" height="1094" xmlns="http://www.w3.org/2000/svg" xmlns:xlink="http://www.w3.org/1999/xlink" version="1.1"><path d="M0 1012L16 1012.8C32 1013.7 64 1015.3 96 1007.5C128 999.7 160 982.3 192 961.5C224 940.7 256 916.3 288 906.2C320 896 352 900 384 926.2C416 952.3 448 1000.7 480 1022.3C512 1044 544 1039 576 1022C608 1005 640 976 672 953C704 930 736 913 768 904C800 895 832 894 864 894C896 894 928 895 960 906.3C992 917.7 1024 939.3 1056 936.2C1088 933 1120 905 1152 912C1184 919 1216 961 1248 975.5C1280 990 1312 977 1344 963.5C1376 950 1408 936 1440 928.5C1472 921 1504 920 1536 913C1568 906 1600 893 1632 910.5C1664 928 1696 976 1728 975.5C1760 975 1792 926 1824 908.3C1856 890.7 1888 904.3 1904 911.2L1920 918L1920 1095L1904 1095C1888 1095 1856 1095 1824 1095C1792 1095 1760 1095 1728 1095C1696 1095 1664 1095 1632 1095C1600 1095 1568 1095 1536 1095C1504 1095 1472 1095 1440 1095C1408 1095 1376 1095 1344 1095C1312 1095 1280 1095 1248 1095C1216 1095 1184 1095 1152 1095C1120 1095 1088 1095 1056 1095C1024 1095 992 1095 960 1095C928 1095 896 1095 864 1095C832 1095 800 1095 768 1095C736 1095 704 1095 672 1095C640 1095 608 1095 576 1095C544 1095 512 1095 480 1095C448 1095 416 1095 384 1095C352 1095 320 1095 288 1095C256 1095 224 1095 192 1095C160 1095 128 1095 96 1095C64 1095 32 1095 16 1095L0 1095Z" fill="#124487"></path><path d="M0 1004L16 1007.2C32 1010.3 64 1016.7 96 1012.8C128 1009 160 995 192 991.3C224 987.7 256 994.3 288 985.2C320 976 352 951 384 950.5C416 950 448 974 480 989C512 1004 544 1010 576 1019.5C608 1029 640 1042 672 1038.3C704 1034.7 736 1014.3 768 1008.7C800 1003 832 1012 864 1009.2C896 1006.3 928 991.7 960 973.8C992 956 1024 935 1056 933.5C1088 932 1120 950 1152 949C1184 948 1216 928 1248 937.7C1280 947.3 1312 986.7 1344 995.5C1376 1004.3 1408 982.7 1440 974.2C1472 965.7 1504 970.3 1536 979.3C1568 988.3 1600 1001.7 1632 1001C1664 1000.3 1696 985.7 1728 986C1760 986.3 1792 1001.7 1824 1004.7C1856 1007.7 1888 998.3 1904 993.7L1920 989L1920 1095L1904 1095C1888 1095 1856 1095 1824 1095C1792 1095 1760 1095 1728 1095C1696 1095 1664 1095 1632 1095C1600 1095 1568 1095 1536 1095C1504 1095 1472 1095 1440 1095C1408 1095 1376 1095 1344 1095C1312 1095 1280 1095 1248 1095C1216 1095 1184 1095 1152 1095C1120 1095 1088 1095 1056 1095C1024 1095 992 1095 960 1095C928 1095 896 1095 864 1095C832 1095 800 1095 768 1095C736 1095 704 1095 672 1095C640 1095 608 1095 576 1095C544 1095 512 1095 480 1095C448 1095 416 1095 384 1095C352 1095 320 1095 288 1095C256 1095 224 1095 192 1095C160 1095 128 1095 96 1095C64 1095 32 1095 16 1095L0 1095Z" fill="#1d5499"></path><path d="M0 933L16 935.3C32 937.7 64 942.3 96 956C128 969.7 160 992.3 192 1004.3C224 1016.3 256 1017.7 288 1014.5C320 1011.3 352 1003.7 384 998.3C416 993 448 990 480 996.2C512 1002.3 544 1017.7 576 1026.2C608 1034.7 640 1036.3 672 1032.3C704 1028.3 736 1018.7 768 1017.8C800 1017 832 1025 864 1026.5C896 1028 928 1023 960 1025.8C992 1028.7 1024 1039.3 1056 1032.3C1088 1025.3 1120 1000.7 1152 990.8C1184 981 1216 986 1248 982.8C1280 979.7 1312 968.3 1344 969.3C1376 970.3 1408 983.7 1440 1000.2C1472 1016.7 1504 1036.3 1536 1037.2C1568 1038 1600 1020 1632 1005.2C1664 990.3 1696 978.7 1728 986C1760 993.3 1792 1019.7 1824 1023.3C1856 1027 1888 1008 1904 998.5L1920 989L1920 1095L1904 1095C1888 1095 1856 1095 1824 1095C1792 1095 1760 1095 1728 1095C1696 1095 1664 1095 1632 1095C1600 1095 1568 1095 1536 1095C1504 1095 1472 1095 1440 1095C1408 1095 1376 1095 1344 1095C1312 1095 1280 1095 1248 1095C1216 1095 1184 1095 1152 1095C1120 1095 1088 1095 1056 1095C1024 1095 992 1095 960 1095C928 1095 896 1095 864 1095C832 1095 800 1095 768 1095C736 1095 704 1095 672 1095C640 1095 608 1095 576 1095C544 1095 512 1095 480 1095C448 1095 416 1095 384 1095C352 1095 320 1095 288 1095C256 1095 224 1095 192 1095C160 1095 128 1095 96 1095C64 1095 32 1095 16 1095L0 1095Z" fill="#2765ac"></path><path d="M0 965L16 974.7C32 984.3 64 1003.7 96 1010.7C128 1017.7 160 1012.3 192 1011C224 1009.7 256 1012.3 288 1019.2C320 1026 352 1037 384 1031.3C416 1025.7 448 1003.3 480 998.7C512 994 544 1007 576 1021.2C608 1035.3 640 1050.7 672 1040.2C704 1029.7 736 993.3 768 985.5C800 977.7 832 998.3 864 1005.2C896 1012 928 1005 960 1002.7C992 1000.3 1024 1002.7 1056 1009.3C1088 1016 1120 1027 1152 1028.3C1184 1029.7 1216 1021.3 1248 1017.7C1280 1014 1312 1015 1344 1016.7C1376 1018.3 1408 1020.7 1440 1023.2C1472 1025.7 1504 1028.3 1536 1029.5C1568 1030.7 1600 1030.3 1632 1032.8C1664 1035.3 1696 1040.7 1728 1045.5C1760 1050.3 1792 1054.7 1824 1058.3C1856 1062 1888 1065 1904 1066.5L1920 1068L1920 1095L1904 1095C1888 1095 1856 1095 1824 1095C1792 1095 1760 1095 1728 1095C1696 1095 1664 1095 1632 1095C1600 1095 1568 1095 1536 1095C1504 1095 1472 1095 1440 1095C1408 1095 1376 1095 1344 1095C1312 1095 1280 1095 1248 1095C1216 1095 1184 1095 1152 1095C1120 1095 1088 1095 1056 1095C1024 1095 992 1095 960 1095C928 1095 896 1095 864 1095C832 1095 800 1095 768 1095C736 1095 704 1095 672 1095C640 1095 608 1095 576 1095C544 1095 512 1095 480 1095C448 1095 416 1095 384 1095C352 1095 320 1095 288 1095C256 1095 224 1095 192 1095C160 1095 128 1095 96 1095C64 1095 32 1095 16 1095L0 1095Z" fill="#3176bf"></path><path d="M0 1053L16 1057C32 1061 64 1069 96 1073.3C128 1077.7 160 1078.3 192 1076.8C224 1075.3 256 1071.7 288 1062.2C320 1052.7 352 1037.3 384 1023.3C416 1009.3 448 996.7 480 1004.8C512 1013 544 1042 576 1047.8C608 1053.7 640 1036.3 672 1035.2C704 1034 736 1049 768 1051.5C800 1054 832 1044 864 1047C896 1050 928 1066 960 1064.3C992 1062.7 1024 1043.3 1056 1042.5C1088 1041.7 1120 1059.3 1152 1067.2C1184 1075 1216 1073 1248 1066.8C1280 1060.7 1312 1050.3 1344 1050.5C1376 1050.7 1408 1061.3 1440 1055.3C1472 1049.3 1504 1026.7 1536 1018.5C1568 1010.3 1600 1016.7 1632 1019.2C1664 1021.7 1696 1020.3 1728 1015.7C1760 1011 1792 1003 1824 1002C1856 1001 1888 1007 1904 1010L1920 1013L1920 1095L1904 1095C1888 1095 1856 1095 1824 1095C1792 1095 1760 1095 1728 1095C1696 1095 1664 1095 1632 1095C1600 1095 1568 1095 1536 1095C1504 1095 1472 1095 1440 1095C1408 1095 1376 1095 1344 1095C1312 1095 1280 1095 1248 1095C1216 1095 1184 1095 1152 1095C1120 1095 1088 1095 1056 1095C1024 1095 992 1095 960 1095C928 1095 896 1095 864 1095C832 1095 800 1095 768 1095C736 1095 704 1095 672 1095C640 1095 608 1095 576 1095C544 1095 512 1095 480 1095C448 1095 416 1095 384 1095C352 1095 320 1095 288 1095C256 1095 224 1095 192 1095C160 1095 128 1095 96 1095C64 1095 32 1095 16 1095L0 1095Z" fill="#3b88d2"></path><path d="M0 1068L16 1062C32 1056 64 1044 96 1037.5C128 1031 160 1030 192 1031.2C224 1032.3 256 1035.7 288 1037.2C320 1038.7 352 1038.3 384 1043.7C416 1049 448 1060 480 1062.8C512 1065.7 544 1060.3 576 1054.5C608 1048.7 640 1042.3 672 1042.3C704 1042.3 736 1048.7 768 1048.2C800 1047.7 832 1040.3 864 1037C896 1033.7 928 1034.3 960 1036.2C992 1038 1024 1041 1056 1040.3C1088 1039.7 1120 1035.3 1152 1039.5C1184 1043.7 1216 1056.3 1248 1056.5C1280 1056.7 1312 1044.3 1344 1039.5C1376 1034.7 1408 1037.3 1440 1040C1472 1042.7 1504 1045.3 1536 1046.8C1568 1048.3 1600 1048.7 1632 1052.7C1664 1056.7 1696 1064.3 1728 1063.3C1760 1062.3 1792 1052.7 1824 1052.3C1856 1052 1888 1061 1904 1065.5L1920 1070L1920 1095L1904 1095C1888 1095 1856 1095 1824 1095C1792 1095 1760 1095 1728 1095C1696 1095 1664 1095 1632 1095C1600 1095 1568 1095 1536 1095C1504 1095 1472 1095 1440 1095C1408 1095 1376 1095 1344 1095C1312 1095 1280 1095 1248 1095C1216 1095 1184 1095 1152 1095C1120 1095 1088 1095 1056 1095C1024 1095 992 1095 960 1095C928 1095 896 1095 864 1095C832 1095 800 1095 768 1095C736 1095 704 1095 672 1095C640 1095 608 1095 576 1095C544 1095 512 1095 480 1095C448 1095 416 1095 384 1095C352 1095 320 1095 288 1095C256 1095 224 1095 192 1095C160 1095 128 1095 96 1095C64 1095 32 1095 16 1095L0 1095Z" fill="#459ae4"></path><path d="M0 1042L16 1043C32 1044 64 1046 96 1046.5C128 1047 160 1046 192 1053.5C224 1061 256 1077 288 1080.5C320 1084 352 1075 384 1070.2C416 1065.3 448 1064.7 480 1061C512 1057.3 544 1050.7 576 1051.5C608 1052.3 640 1060.7 672 1062.3C704 1064 736 1059 768 1055.8C800 1052.7 832 1051.3 864 1056C896 1060.7 928 1071.3 960 1070.5C992 1069.7 1024 1057.3 1056 1054.2C1088 1051 1120 1057 1152 1057.5C1184 1058 1216 1053 1248 1049C1280 1045 1312 1042 1344 1043.3C1376 1044.7 1408 1050.3 1440 1050.5C1472 1050.7 1504 1045.3 1536 1043.7C1568 1042 1600 1044 1632 1048.2C1664 1052.3 1696 1058.7 1728 1058.7C1760 1058.7 1792 1052.3 1824 1050.3C1856 1048.3 1888 1050.7 1904 1051.8L1920 1053L1920 1095L1904 1095C1888 1095 1856 1095 1824 1095C1792 1095 1760 1095 1728 1095C1696 1095 1664 1095 1632 1095C1600 1095 1568 1095 1536 1095C1504 1095 1472 1095 1440 1095C1408 1095 1376 1095 1344 1095C1312 1095 1280 1095 1248 1095C1216 1095 1184 1095 1152 1095C1120 1095 1088 1095 1056 1095C1024 1095 992 1095 960 1095C928 1095 896 1095 864 1095C832 1095 800 1095 768 1095C736 1095 704 1095 672 1095C640 1095 608 1095 576 1095C544 1095 512 1095 480 1095C448 1095 416 1095 384 1095C352 1095 320 1095 288 1095C256 1095 224 1095 192 1095C160 1095 128 1095 96 1095C64 1095 32 1095 16 1095L0 1095Z" fill="#4facf7"></path></svg>