<svg id="visual" viewBox="0 0 900 600" width="900" height="600" xmlns="http://www.w3.org/2000/svg" xmlns:xlink="http://www.w3.org/1999/xlink" version="1.1"><path d="M0 573L6.5 571.2C13 569.3 26 565.7 39 563.5C52 561.3 65 560.7 78 558.8C91 557 104 554 117.2 551.7C130.3 549.3 143.7 547.7 156.8 551.8C170 556 183 566 196 567.3C209 568.7 222 561.3 235 556.2C248 551 261 548 274 546.3C287 544.7 300 544.3 313 549.2C326 554 339 564 352 567.8C365 571.7 378 569.3 391 568.3C404 567.3 417 567.7 430.2 565.8C443.3 564 456.7 560 469.8 559C483 558 496 560 509 559.8C522 559.7 535 557.3 548 558.2C561 559 574 563 587 562.7C600 562.3 613 557.7 626 554.2C639 550.7 652 548.3 665 550.7C678 553 691 560 704 560C717 560 730 553 743.2 549.7C756.3 546.3 769.7 546.7 782.8 548.3C796 550 809 553 822 552.8C835 552.7 848 549.3 861 549.5C874 549.7 887 553.3 893.5 555.2L900 557L900 601L893.5 601C887 601 874 601 861 601C848 601 835 601 822 601C809 601 796 601 782.8 601C769.7 601 756.3 601 743.2 601C730 601 717 601 704 601C691 601 678 601 665 601C652 601 639 601 626 601C613 601 600 601 587 601C574 601 561 601 548 601C535 601 522 601 509 601C496 601 483 601 469.8 601C456.7 601 443.3 601 430.2 601C417 601 404 601 391 601C378 601 365 601 352 601C339 601 326 601 313 601C300 601 287 601 274 601C261 601 248 601 235 601C222 601 209 601 196 601C183 601 170 601 156.8 601C143.7 601 130.3 601 117.2 601C104 601 91 601 78 601C65 601 52 601 39 601C26 601 13 601 6.5 601L0 601Z" fill="#0066ff"></path><path d="M0 557L6.5 557.3C13 557.7 26 558.3 39 562.3C52 566.3 65 573.7 78 574.5C91 575.3 104 569.7 117.2 568.2C130.3 566.7 143.7 569.3 156.8 570.7C170 572 183 572 196 571.7C209 571.3 222 570.7 235 571C248 571.3 261 572.7 274 572.7C287 572.7 300 571.3 313 569.2C326 567 339 564 352 563.7C365 563.3 378 565.7 391 565C404 564.3 417 560.7 430.2 563C443.3 565.3 456.7 573.7 469.8 575.8C483 578 496 574 509 569.7C522 565.3 535 560.7 548 559.2C561 557.7 574 559.3 587 560.2C600 561 613 561 626 560.7C639 560.3 652 559.7 665 561.3C678 563 691 567 704 567.2C717 567.3 730 563.7 743.2 564C756.3 564.3 769.7 568.7 782.8 568.3C796 568 809 563 822 563.7C835 564.3 848 570.7 861 571C874 571.3 887 565.7 893.5 562.8L900 560L900 601L893.5 601C887 601 874 601 861 601C848 601 835 601 822 601C809 601 796 601 782.8 601C769.7 601 756.3 601 743.2 601C730 601 717 601 704 601C691 601 678 601 665 601C652 601 639 601 626 601C613 601 600 601 587 601C574 601 561 601 548 601C535 601 522 601 509 601C496 601 483 601 469.8 601C456.7 601 443.3 601 430.2 601C417 601 404 601 391 601C378 601 365 601 352 601C339 601 326 601 313 601C300 601 287 601 274 601C261 601 248 601 235 601C222 601 209 601 196 601C183 601 170 601 156.8 601C143.7 601 130.3 601 117.2 601C104 601 91 601 78 601C65 601 52 601 39 601C26 601 13 601 6.5 601L0 601Z" fill="#0080ff"></path><path d="M0 572L6.5 572C13 572 26 572 39 572.5C52 573 65 574 78 573.8C91 573.7 104 572.3 117.2 574C130.3 575.7 143.7 580.3 156.8 583.3C170 586.3 183 587.7 196 586.2C209 584.7 222 580.3 235 576.7C248 573 261 570 274 571.2C287 572.3 300 577.7 313 579.2C326 580.7 339 578.3 352 576.2C365 574 378 572 391 573.2C404 574.3 417 578.7 430.2 579.3C443.3 580 456.7 577 469.8 578C483 579 496 584 509 583.7C522 583.3 535 577.7 548 577.7C561 577.7 574 583.3 587 585.2C600 587 613 585 626 582.2C639 579.3 652 575.7 665 573.7C678 571.7 691 571.3 704 571.5C717 571.7 730 572.3 743.2 572.5C756.3 572.7 769.7 572.3 782.8 571.3C796 570.3 809 568.7 822 567.8C835 567 848 567 861 569.2C874 571.3 887 575.7 893.5 577.8L900 580L900 601L893.5 601C887 601 874 601 861 601C848 601 835 601 822 601C809 601 796 601 782.8 601C769.7 601 756.3 601 743.2 601C730 601 717 601 704 601C691 601 678 601 665 601C652 601 639 601 626 601C613 601 600 601 587 601C574 601 561 601 548 601C535 601 522 601 509 601C496 601 483 601 469.8 601C456.7 601 443.3 601 430.2 601C417 601 404 601 391 601C378 601 365 601 352 601C339 601 326 601 313 601C300 601 287 601 274 601C261 601 248 601 235 601C222 601 209 601 196 601C183 601 170 601 156.8 601C143.7 601 130.3 601 117.2 601C104 601 91 601 78 601C65 601 52 601 39 601C26 601 13 601 6.5 601L0 601Z" fill="#1e97fd"></path><path d="M0 593L6.5 592.5C13 592 26 591 39 589.7C52 588.3 65 586.7 78 586.8C91 587 104 589 117.2 590.2C130.3 591.3 143.7 591.7 156.8 589.5C170 587.3 183 582.7 196 582.5C209 582.3 222 586.7 235 588C248 589.3 261 587.7 274 586.7C287 585.7 300 585.3 313 585C326 584.7 339 584.3 352 585.3C365 586.3 378 588.7 391 588.5C404 588.3 417 585.7 430.2 584.5C443.3 583.3 456.7 583.7 469.8 583.3C483 583 496 582 509 582.5C522 583 535 585 548 584.7C561 584.3 574 581.7 587 580.5C600 579.3 613 579.7 626 581.2C639 582.7 652 585.3 665 585C678 584.7 691 581.3 704 582C717 582.7 730 587.3 743.2 587.5C756.3 587.7 769.7 583.3 782.8 582C796 580.7 809 582.3 822 583.7C835 585 848 586 861 586.3C874 586.7 887 586.3 893.5 586.2L900 586L900 601L893.5 601C887 601 874 601 861 601C848 601 835 601 822 601C809 601 796 601 782.8 601C769.7 601 756.3 601 743.2 601C730 601 717 601 704 601C691 601 678 601 665 601C652 601 639 601 626 601C613 601 600 601 587 601C574 601 561 601 548 601C535 601 522 601 509 601C496 601 483 601 469.8 601C456.7 601 443.3 601 430.2 601C417 601 404 601 391 601C378 601 365 601 352 601C339 601 326 601 313 601C300 601 287 601 274 601C261 601 248 601 235 601C222 601 209 601 196 601C183 601 170 601 156.8 601C143.7 601 130.3 601 117.2 601C104 601 91 601 78 601C65 601 52 601 39 601C26 601 13 601 6.5 601L0 601Z" fill="#4facf7"></path></svg>