<?xml version="1.0" standalone="no"?><svg xmlns="http://www.w3.org/2000/svg" viewBox="0 0 1440 320"><path fill="#ffd700" fill-opacity="1" d="M0,192L14.1,197.3C28.2,203,56,213,85,192C112.9,171,141,117,169,85.3C197.6,53,226,43,254,32C282.4,21,311,11,339,48C367.1,85,395,171,424,213.3C451.8,256,480,256,508,218.7C536.5,181,565,107,593,106.7C621.2,107,649,181,678,213.3C705.9,245,734,235,762,245.3C790.6,256,819,288,847,288C875.3,288,904,256,932,208C960,160,988,96,1016,96C1044.7,96,1073,160,1101,186.7C1129.4,213,1158,203,1186,181.3C1214.1,160,1242,128,1271,96C1298.8,64,1327,32,1355,58.7C1383.5,85,1412,171,1426,213.3L1440,256L1440,320L1425.9,320C1411.8,320,1384,320,1355,320C1327.1,320,1299,320,1271,320C1242.4,320,1214,320,1186,320C1157.6,320,1129,320,1101,320C1072.9,320,1045,320,1016,320C988.2,320,960,320,932,320C903.5,320,875,320,847,320C818.8,320,791,320,762,320C734.1,320,706,320,678,320C649.4,320,621,320,593,320C564.7,320,536,320,508,320C480,320,452,320,424,320C395.3,320,367,320,339,320C310.6,320,282,320,254,320C225.9,320,198,320,169,320C141.2,320,113,320,85,320C56.5,320,28,320,14,320L0,320Z"></path></svg>